<?xml version="1.0" encoding="utf-8"?>
<!-- Generator: Adobe Illustrator 28.1.0, SVG Export Plug-In . SVG Version: 6.00 Build 0)  -->
<svg version="1.1" id="Layer_1" xmlns="http://www.w3.org/2000/svg" xmlns:xlink="http://www.w3.org/1999/xlink" x="0px" y="0px"
	 viewBox="0 0 275 272" style="enable-background:new 0 0 275 272;" xml:space="preserve">
<style type="text/css">
	.st0{fill:#FFFFFF;}
	.st1{fill:#EDC47C;}
</style>
<g id="_x23_ffffffff">
	<path class="st0" d="M122.3,41.3c10.7-2.2,22.2-2,32.4,2.2c8.2,3.3,14.9,10,18.6,18c5.9,12.6,6.1,27.2,2.3,40.4
		c0.6,0,2-0.1,2.6-0.2c2.6,3.8,2.2,8.7,1.2,12.9c-2.3,6.6-5.8,12.9-10.7,17.9c-0.6-0.1-1.6-0.3-2.2-0.4c-0.8,3.8-2.8,7.2-3.4,11.1
		c-0.9,5.9-2.2,11.8-3.2,17.8c-0.4,1.6,0.5,3.4,2.2,3.7c19.3,7.1,38.5,14.2,57.8,21.3c3.3,1.1,5.9,3.6,8,6.4
		c-14.1,22-36.5,38.5-61.7,45.7c-22.7,6.5-47.4,5.5-69.4-2.9c-22-8.3-40.9-23.9-53.6-43.6c2-2.6,4.7-4.8,7.9-5.8
		c19-7,37.9-14,56.9-21c1.3-0.4,3.1-1.3,2.7-2.9c-0.8-6.2-2.3-12.3-3.2-18.4c-0.5-4-2.6-7.6-3.5-11.5c-0.4,0.1-1.3,0.4-1.8,0.5
		c-3.8-2.9-6-7.4-8.3-11.5c-2.9-5.3-4.5-11.8-2.5-17.8c0.5-1.5,1.9-1.6,3.2-1.6C91.4,88,90.7,72.9,97.1,60
		C101.9,50.2,111.7,43.5,122.3,41.3z"/>
</g>
<g id="_x23_193f6eff">
	<path class="st1" d="M120.5,20.7c24.4-3.4,49.8,1.4,71.2,13.6c22.6,12.8,40.6,33.7,49.8,58.1c9.6,25,9.8,53.4,0.6,78.6
		c-7.9,22.1-23,41.5-42.3,54.7c-22.2,15.4-50.1,22.2-76.8,19c-23.1-2.6-45.2-12.6-62.4-28.1c-20.4-18.2-33.8-44.1-36.7-71.3
		c-2.7-22.5,1.8-45.8,12.5-65.8C52.9,47.9,85.2,25.2,120.5,20.7 M122.3,41.3c-10.6,2.2-20.3,8.9-25.2,18.7
		c-6.4,12.9-5.7,28-2.5,41.7c-1.3,0.1-2.8,0.1-3.2,1.6c-2.1,5.9-0.5,12.4,2.5,17.8c2.3,4.1,4.5,8.6,8.3,11.5
		c0.4-0.1,1.3-0.4,1.8-0.5c0.9,3.9,3,7.5,3.5,11.5c1,6.2,2.4,12.3,3.2,18.4c0.4,1.7-1.4,2.5-2.7,2.9c-19,7-37.9,14-56.9,21
		c-3.2,1-5.8,3.2-7.9,5.8c12.7,19.7,31.6,35.4,53.6,43.6c22,8.4,46.8,9.4,69.4,2.9c25.2-7.1,47.6-23.7,61.7-45.7
		c-2.1-2.8-4.6-5.3-8-6.4c-19.3-7.1-38.6-14.2-57.8-21.3c-1.7-0.3-2.6-2.1-2.2-3.7c0.9-5.9,2.2-11.8,3.2-17.8
		c0.5-3.9,2.5-7.3,3.4-11.1c0.5,0.1,1.6,0.3,2.2,0.4c4.9-5,8.4-11.3,10.7-17.9c1-4.2,1.3-9.2-1.2-12.9c-0.6,0-2,0.1-2.6,0.2
		c3.8-13.2,3.6-27.9-2.3-40.4c-3.7-8-10.4-14.7-18.6-18C144.5,39.3,133,39,122.3,41.3z"/>
</g>
</svg>
