<?xml version="1.0" encoding="UTF-8" ?>
<!DOCTYPE svg PUBLIC "-//W3C//DTD SVG 1.1//EN" "http://www.w3.org/Graphics/SVG/1.1/DTD/svg11.dtd">
<svg viewBox="0 0 275 272" version="1.1" xmlns="http://www.w3.org/2000/svg">
<g id="#ffffffff">
<path fill="#ffffff" opacity="1.00" d=" M 122.27 41.27 C 132.96 39.05 144.47 39.26 154.68 43.43 C 162.91 46.74 169.57 53.42 173.27 61.45 C 179.19 74.03 179.34 88.66 175.58 101.89 C 176.23 101.85 177.55 101.76 178.20 101.72 C 180.76 105.47 180.38 110.45 179.42 114.67 C 177.11 121.25 173.66 127.60 168.74 132.59 C 168.19 132.48 167.10 132.25 166.56 132.14 C 165.74 135.94 163.73 139.38 163.20 143.25 C 162.25 149.19 160.95 155.07 160.02 161.01 C 159.62 162.58 160.51 164.41 162.18 164.72 C 181.44 171.84 200.71 178.97 219.99 186.06 C 223.33 187.20 225.91 189.70 227.97 192.49 C 213.84 214.50 191.44 231.04 166.27 238.18 C 143.62 244.69 118.86 243.69 96.83 235.26 C 74.88 227.00 55.90 211.34 43.23 191.64 C 45.26 189.03 47.91 186.88 51.09 185.86 C 70.04 178.87 88.99 171.87 107.94 164.90 C 109.21 164.47 111.04 163.62 110.64 161.95 C 109.79 155.77 108.36 149.67 107.40 143.51 C 106.88 139.50 104.82 135.93 103.90 132.03 C 103.46 132.16 102.56 132.42 102.11 132.55 C 98.30 129.64 96.10 125.18 93.80 121.08 C 90.88 115.73 89.26 109.25 91.35 103.32 C 91.82 101.84 93.29 101.75 94.60 101.69 C 91.43 88.03 90.70 72.88 97.10 60.01 C 101.93 50.20 111.69 43.47 122.27 41.27 Z" />
</g>
<g id="#193f6eff">
<path fill="#193f6e" opacity="1.00" d=" M 120.49 20.70 C 144.85 17.30 170.31 22.09 191.67 34.34 C 214.31 47.16 232.31 68.04 241.47 92.41 C 251.07 117.40 251.24 145.84 242.06 170.98 C 234.17 193.07 219.06 212.46 199.71 225.68 C 177.53 241.05 149.65 247.86 122.87 244.64 C 99.82 242.07 77.68 232.07 60.50 216.49 C 40.09 198.28 26.68 172.40 23.81 145.18 C 21.12 122.64 25.62 99.35 36.32 79.35 C 52.93 47.89 85.16 25.25 120.49 20.70 M 122.27 41.27 C 111.69 43.47 101.93 50.20 97.10 60.01 C 90.70 72.88 91.43 88.03 94.60 101.69 C 93.29 101.75 91.82 101.84 91.35 103.32 C 89.26 109.25 90.88 115.73 93.80 121.08 C 96.10 125.18 98.30 129.64 102.11 132.55 C 102.56 132.42 103.46 132.16 103.90 132.03 C 104.82 135.93 106.88 139.50 107.40 143.51 C 108.36 149.67 109.79 155.77 110.64 161.95 C 111.04 163.62 109.21 164.47 107.94 164.90 C 88.99 171.87 70.04 178.87 51.09 185.86 C 47.91 186.88 45.26 189.03 43.23 191.64 C 55.90 211.34 74.88 227.00 96.83 235.26 C 118.86 243.69 143.62 244.69 166.27 238.18 C 191.44 231.04 213.84 214.50 227.97 192.49 C 225.91 189.70 223.33 187.20 219.99 186.06 C 200.71 178.97 181.44 171.84 162.18 164.72 C 160.51 164.41 159.62 162.58 160.02 161.01 C 160.95 155.07 162.25 149.19 163.20 143.25 C 163.73 139.38 165.74 135.94 166.56 132.14 C 167.10 132.25 168.19 132.48 168.74 132.59 C 173.66 127.60 177.11 121.25 179.42 114.67 C 180.38 110.45 180.76 105.47 178.20 101.72 C 177.55 101.76 176.23 101.85 175.58 101.89 C 179.34 88.66 179.19 74.03 173.27 61.45 C 169.57 53.42 162.91 46.74 154.68 43.43 C 144.47 39.26 132.96 39.05 122.27 41.27 Z" />
</g>
</svg>
