<svg width="32" height="32" viewBox="0 0 32 32" fill="none" xmlns="http://www.w3.org/2000/svg">
<path d="M26.72 12.9587C26.72 12.4064 26.2723 11.9587 25.72 11.9587C25.1677 11.9587 24.72 12.4064 24.72 12.9587H26.72ZM7.27999 12.9587C7.27999 12.4064 6.83227 11.9587 6.27999 11.9587C5.7277 11.9587 5.27999 12.4064 5.27999 12.9587H7.27999ZM19.351 27.6095L19.1211 26.6363L19.1211 26.6363L19.351 27.6095ZM12.649 27.6095L12.8789 26.6363L12.8789 26.6363L12.649 27.6095ZM19.7712 6.68564L19.0616 7.39023L19.0616 7.39023L19.7712 6.68564ZM27.2904 15.6775C27.6795 16.0694 28.3127 16.0717 28.7046 15.6825C29.0965 15.2934 29.0987 14.6602 28.7096 14.2683L27.2904 15.6775ZM12.2288 6.68564L12.9384 7.39023L12.9384 7.39023L12.2288 6.68564ZM3.29039 14.2683C2.90125 14.6602 2.9035 15.2934 3.2954 15.6825C3.68731 16.0717 4.32047 16.0694 4.70961 15.6775L3.29039 14.2683ZM12.9579 24.4271L11.9751 24.2426L11.9751 24.2426L12.9579 24.4271ZM12.9837 24.2897L13.9665 24.4742L13.9665 24.4742L12.9837 24.2897ZM19.0163 24.2897L18.0335 24.4742L18.0335 24.4742L19.0163 24.2897ZM19.0421 24.4271L20.0249 24.2426L20.0249 24.2426L19.0421 24.4271ZM18.6557 27.4025L17.7527 26.9728L17.7527 26.9728L18.6557 27.4025ZM17.597 27.3C17.3597 27.7987 17.5716 28.3953 18.0703 28.6327C18.569 28.87 19.1656 28.6581 19.403 28.1594L17.597 27.3ZM13.3443 27.4025L12.4413 27.8322L12.4413 27.8322L13.3443 27.4025ZM12.597 28.1594C12.8344 28.6581 13.431 28.87 13.9297 28.6327C14.4284 28.3953 14.6403 27.7987 14.403 27.3L12.597 28.1594ZM15.1481 21.9234L14.8807 20.9598L14.8807 20.9598L15.1481 21.9234ZM16.8519 21.9234L17.1193 20.9598L17.1193 20.9598L16.8519 21.9234ZM24.72 12.9587V19.5165H26.72V12.9587H24.72ZM7.27999 19.5165V12.9587H5.27999V19.5165H7.27999ZM19.1211 26.6363C17.0682 27.1212 14.9318 27.1212 12.8789 26.6363L12.4191 28.5827C14.7744 29.1391 17.2256 29.1391 19.5809 28.5827L19.1211 26.6363ZM12.8789 26.6363C9.60347 25.8625 7.27999 22.9169 7.27999 19.5165H5.27999C5.27999 23.8353 8.23228 27.5936 12.4191 28.5827L12.8789 26.6363ZM19.5809 28.5827C23.7677 27.5936 26.72 23.8353 26.72 19.5165H24.72C24.72 22.9169 22.3965 25.8625 19.1211 26.6363L19.5809 28.5827ZM19.0616 7.39023L27.2904 15.6775L28.7096 14.2683L20.4808 5.98104L19.0616 7.39023ZM11.5192 5.98104L3.29039 14.2683L4.70961 15.6775L12.9384 7.39023L11.5192 5.98104ZM20.4808 5.98104C19.6119 5.10594 18.8907 4.37661 18.2425 3.87847C17.5714 3.36282 16.861 3 16 3V5C16.2435 5 16.5299 5.08479 17.0239 5.46435C17.5406 5.86142 18.1528 6.47491 19.0616 7.39023L20.4808 5.98104ZM12.9384 7.39023C13.8472 6.47491 14.4594 5.86142 14.9761 5.46435C15.4701 5.08479 15.7565 5 16 5V3C15.139 3 14.4286 3.36282 13.7575 3.87847C13.1092 4.37661 12.3881 5.10594 11.5192 5.98104L12.9384 7.39023ZM13.9407 24.6116L13.9665 24.4742L12.0008 24.1052L11.9751 24.2426L13.9407 24.6116ZM18.0335 24.4742L18.0593 24.6116L20.0249 24.2426L19.9992 24.1052L18.0335 24.4742ZM17.7527 26.9728L17.597 27.3L19.403 28.1594L19.5587 27.8322L17.7527 26.9728ZM12.4413 27.8322L12.597 28.1594L14.403 27.3L14.2473 26.9728L12.4413 27.8322ZM18.0593 24.6116C18.2095 25.4117 18.1019 26.2391 17.7527 26.9728L19.5587 27.8322C20.0899 26.7159 20.2531 25.4583 20.0249 24.2426L18.0593 24.6116ZM11.9751 24.2426C11.7469 25.4583 11.9101 26.7159 12.4413 27.8322L14.2473 26.9728C13.8981 26.2391 13.7905 25.4117 13.9407 24.6116L11.9751 24.2426ZM15.4154 22.887C15.7981 22.7808 16.2019 22.7808 16.5846 22.887L17.1193 20.9598C16.3868 20.7566 15.6132 20.7566 14.8807 20.9598L15.4154 22.887ZM19.9992 24.1052C19.7154 22.5933 18.6006 21.3708 17.1193 20.9598L16.5846 22.887C17.3247 23.0924 17.8893 23.7059 18.0335 24.4742L19.9992 24.1052ZM13.9665 24.4742C14.1107 23.7059 14.6753 23.0924 15.4154 22.887L14.8807 20.9598C13.3994 21.3708 12.2846 22.5933 12.0008 24.1052L13.9665 24.4742Z" fill="#13D473"/>
</svg>
