<svg width="32" height="32" viewBox="0 0 32 32" fill="none" xmlns="http://www.w3.org/2000/svg">
<path d="M11.595 12.0772H19.6372M11.595 16.6855H16.7128M17.4809 25.2357H18.8961C22.7451 25.2357 26.0934 22.4666 26.9968 18.5361C27.4455 16.5843 27.4455 14.5484 26.9968 12.5965L26.8784 12.0812C26.0076 8.29277 23.1693 5.34938 19.5521 4.48352L19.044 4.36189C17.0283 3.87937 14.9351 3.87937 12.9193 4.36188L12.6219 4.43307C8.87565 5.32984 5.93612 8.37829 5.03424 12.3019C4.54109 14.4474 4.5456 16.7049 5.03875 18.8504C5.95473 22.8353 8.64914 26.1517 12.2637 27.6971L12.4212 27.7644C13.9853 28.4331 15.7771 27.6278 16.419 25.9869C16.5956 25.5353 17.0162 25.2357 17.4809 25.2357Z" stroke="#4F4F4F" stroke-width="2" stroke-linecap="round"/>
</svg>
