<svg width="33" height="32" viewBox="0 0 33 32" fill="none" xmlns="http://www.w3.org/2000/svg">
<path d="M11.4267 4V7.35166M21.9065 4V7.35166M5.77762 20.3313C5.18513 17.7463 5.18513 15.056 5.77762 12.471C6.59802 8.89153 9.32889 6.09668 12.8264 5.25706C15.3522 4.65069 17.9809 4.65069 20.5068 5.25706C24.0043 6.09668 26.7352 8.89154 27.5556 12.471C28.148 15.056 28.148 17.7463 27.5556 20.3313C26.7352 23.9108 24.0043 26.7056 20.5068 27.5452C17.9809 28.1516 15.3522 28.1516 12.8264 27.5452C9.3289 26.7056 6.59802 23.9108 5.77762 20.3313Z" stroke="#13D473" stroke-width="2" stroke-linecap="round"/>
<path d="M19.3333 17.3334H14M16.6667 20.0001L16.6667 14.6667" stroke="#13D473" stroke-width="2" stroke-linecap="round"/>
</svg>
