<svg width="32" height="32" viewBox="0 0 32 32" fill="none" xmlns="http://www.w3.org/2000/svg">
<path d="M4.42097 18.3747L5.39455 18.1464L4.42097 18.3747ZM4.42097 11.0987L5.39455 11.327L4.42097 11.0987ZM25.0524 11.0987L26.026 10.8703L25.0524 11.0987ZM25.0524 18.3747L26.026 18.6031L25.0524 18.3747ZM18.3747 25.0524L18.1464 24.0789L18.3747 25.0524ZM11.0987 25.0524L10.8703 26.026L11.0987 25.0524ZM11.0987 4.42097L10.8703 3.4474L11.0987 4.42097ZM18.3747 4.42097L18.6031 3.4474L18.3747 4.42097ZM27.2929 28.7071C27.6834 29.0976 28.3166 29.0976 28.7071 28.7071C29.0976 28.3166 29.0976 27.6834 28.7071 27.2929L27.2929 28.7071ZM5.39455 18.1464C4.86848 15.9037 4.86848 13.5697 5.39455 11.327L3.4474 10.8703C2.85087 13.4134 2.85087 16.06 3.4474 18.6031L5.39455 18.1464ZM24.0789 11.327C24.6049 13.5697 24.6049 15.9037 24.0789 18.1464L26.026 18.6031C26.6225 16.06 26.6225 13.4134 26.026 10.8703L24.0789 11.327ZM18.1464 24.0789C15.9037 24.6049 13.5697 24.6049 11.327 24.0789L10.8703 26.026C13.4134 26.6225 16.06 26.6225 18.6031 26.026L18.1464 24.0789ZM11.327 5.39454C13.5697 4.86849 15.9037 4.86848 18.1464 5.39454L18.6031 3.4474C16.06 2.85087 13.4134 2.85087 10.8703 3.4474L11.327 5.39454ZM11.327 24.0789C8.38343 23.3884 6.08502 21.09 5.39455 18.1464L3.4474 18.6031C4.31134 22.2862 7.18717 25.1621 10.8703 26.026L11.327 24.0789ZM18.6031 26.026C22.2862 25.1621 25.1621 22.2862 26.026 18.6031L24.0789 18.1464C23.3884 21.09 21.09 23.3884 18.1464 24.0789L18.6031 26.026ZM18.1464 5.39454C21.09 6.08502 23.3884 8.38342 24.0789 11.327L26.026 10.8703C25.1621 7.18717 22.2862 4.31134 18.6031 3.4474L18.1464 5.39454ZM10.8703 3.4474C7.18717 4.31134 4.31134 7.18716 3.4474 10.8703L5.39455 11.327C6.08502 8.38342 8.38342 6.08502 11.327 5.39454L10.8703 3.4474ZM22.4064 23.8206L27.2929 28.7071L28.7071 27.2929L23.8206 22.4064L22.4064 23.8206Z" fill="#4F4F4F"/>
</svg>
