<svg width="24" height="24" viewBox="0 0 24 24" fill="none" xmlns="http://www.w3.org/2000/svg">
<path fill-rule="evenodd" clip-rule="evenodd" d="M17.0003 17.2342C16.969 16.3071 16.1976 15.5777 15.2702 15.5986C14.3428 15.6194 13.6049 16.3826 13.6153 17.3102C13.6258 18.2377 14.3807 18.9842 15.3083 18.9842C16.2586 18.9677 17.0159 18.1845 17.0003 17.2342Z" stroke="#4F4F4F" stroke-width="1.5" stroke-linecap="round" stroke-linejoin="round"/>
<path fill-rule="evenodd" clip-rule="evenodd" d="M11.0774 11.9841C11.1007 13.41 9.9642 14.585 8.53836 14.6091C7.1129 14.5845 5.97696 13.4096 6.00035 11.9841C5.97696 10.5587 7.1129 9.38378 8.53836 9.35913C9.9642 9.38323 11.1007 10.5583 11.0774 11.9841Z" stroke="#4F4F4F" stroke-width="1.5" stroke-linecap="round" stroke-linejoin="round"/>
<path fill-rule="evenodd" clip-rule="evenodd" d="M16.1543 6.73414C16.1692 7.34862 15.85 7.92293 15.3202 8.23456C14.7903 8.54619 14.1333 8.54619 13.6035 8.23456C13.0736 7.92293 12.7544 7.34862 12.7693 6.73414C12.7544 6.11966 13.0736 5.54536 13.6035 5.23372C14.1333 4.92209 14.7903 4.92209 15.3202 5.23372C15.85 5.54536 16.1692 6.11966 16.1543 6.73414Z" stroke="#4F4F4F" stroke-width="1.5" stroke-linecap="round" stroke-linejoin="round"/>
<path d="M13.6046 16.6881C13.9425 16.9277 14.4107 16.8479 14.6502 16.51C14.8897 16.1721 14.81 15.7039 14.4721 15.4644L13.6046 16.6881ZM10.9721 12.9834C10.6341 12.7439 10.166 12.8236 9.92646 13.1615C9.68692 13.4995 9.76668 13.9676 10.1046 14.2071L10.9721 12.9834ZM13.7009 8.44279C14.0033 8.15971 14.0189 7.6851 13.7359 7.38271C13.4528 7.08032 12.9782 7.06466 12.6758 7.34774L13.7009 8.44279ZM10.0298 9.82474C9.72738 10.1078 9.71173 10.5824 9.9948 10.8848C10.2779 11.1872 10.7525 11.2029 11.0549 10.9198L10.0298 9.82474ZM14.4721 15.4644L10.9721 12.9834L10.1046 14.2071L13.6046 16.6881L14.4721 15.4644ZM12.6758 7.34774L10.0298 9.82474L11.0549 10.9198L13.7009 8.44279L12.6758 7.34774Z" fill="#4F4F4F"/>
</svg>
