<svg width="32" height="32" viewBox="0 0 32 32" fill="none" xmlns="http://www.w3.org/2000/svg">
<path d="M11.3334 20.9878C11.3334 19.6766 12.2782 18.5597 13.5623 18.353C15.1772 18.0931 16.8229 18.0931 18.4378 18.353C19.7219 18.5597 20.6667 19.6766 20.6667 20.9878V21.2781C20.6667 22.0449 20.0502 22.6666 19.2898 22.6666H12.7103C11.9498 22.6666 11.3334 22.0449 11.3334 21.2781V20.9878Z" stroke="#13D473" stroke-width="2"/>
<path d="M18.7223 12.0784C18.7223 13.5944 17.5035 14.8234 16 14.8234C14.4966 14.8234 13.2778 13.5944 13.2778 12.0784C13.2778 10.5623 14.4966 9.33325 16 9.33325C17.5035 9.33325 18.7223 10.5623 18.7223 12.0784Z" stroke="#13D473" stroke-width="2"/>
<path d="M28 9.33333C28 6.38781 25.0152 4 21.3333 4M4 21.3333C4 25.0152 6.38781 28 9.33333 28M9.33333 4C6.38781 4 4 6.38781 4 9.33333M21.3333 28C25.0152 28 28 25.0152 28 21.3333" stroke="#13D473" stroke-width="2" stroke-linecap="round"/>
</svg>
